<?xml version="1.0" encoding="UTF-8"?>
<svg width="235px" height="117px" viewBox="0 0 235 117" version="1.1" xmlns="http://www.w3.org/2000/svg" xmlns:xlink="http://www.w3.org/1999/xlink">
    <title>BEB63D84-D470-4C95-944B-0041778094EB</title>
    <g id="Page-1" stroke="none" stroke-width="1" fill="none" fill-rule="evenodd">
        <g id="Web-Desktop" transform="translate(-360.000000, -116.000000)" fill-rule="nonzero">
            <g id="logo-main" transform="translate(360.000000, 116.000000)">
                <g id="Group_607" transform="translate(169.000000, 51.000000)">
                    <path d="M2.06562162,44.2877838 C-4.18146685,27.2399211 4.57428087,8.35563061 21.6221379,2.10852667 C38.669995,-4.13857726 57.5542934,4.61715333 63.8014128,21.6650047 C70.0485322,38.7128561 61.2928187,57.5971624 44.244973,63.8442973 L44.244973,63.8442973 C27.1971056,70.0909155 8.3131184,61.3353292 2.06562162,44.2877838 Z" id="Path_548" fill="#1F1F1F"></path>
                    <g id="Group_605" transform="translate(1.783784, 1.783784)">
                        <path d="M57.1577838,14.1677027 C64.0438278,24.6866519 63.9153449,38.3178955 56.8322467,48.7051769 C49.7491485,59.0924582 37.1063379,64.1901685 24.7991647,61.6212425 C12.4919915,59.0523165 2.9441564,49.3226631 0.607820453,36.9692252 C-1.72851549,24.6157873 3.60675166,12.0713768 14.1257838,5.18545946 L14.1257838,5.18545946 C28.4893394,-4.21596365 47.7545394,-0.194660601 57.1577838,14.1677027 Z" id="Path_549" fill="#FFFFFF"></path>
                        <g id="Group_602" fill="#1F1F1F">
                            <polygon id="Path_550" points="27.2811892 36.5845135 36.885973 24.3049459 37.1053784 24.4770811 27.5005946 36.753973 27.2811892 36.5818378"></polygon>
                            <path d="M30.7283514,48.0658378 L30.7283514,48.0658378 L30.8175405,47.7982703 C32.4310314,48.2889739 34.0682466,48.69798 35.7229459,49.0237297 L35.7229459,49.0237297 C38.8922292,49.6295696 42.1313659,49.7833137 45.3437838,49.4803784 L45.5328649,49.7711351 L45.408,49.8157297 C38.7696486,50.7406216 30.7399459,48.0640541 30.7319189,48.0640541 L30.7283514,48.0658378 Z" id="Path_551"></path>
                            <path d="M52.7429189,40.7942432 C52.3996307,37.0873301 51.5128099,33.4510945 50.1109459,30.0023514 L50.1109459,30.0023514 C49.5408456,28.5482239 48.8548555,27.1422427 48.0595946,25.797973 L48.0595946,25.797973 L48.2950541,25.6481351 C50.9357507,30.2918887 52.5458177,35.4497002 53.0158378,40.7710541 L53.0158378,40.7710541 L52.7402432,40.796027 L52.7429189,40.7942432 Z" id="Path_552"></path>
                            <path d="M14.6725135,34.3663784 C11.1236757,28.9392162 10.3165135,21.4892432 10.3129459,21.4776486 L10.3129459,21.4776486 L10.5903243,21.4482162 C10.7795318,22.9229405 11.0610301,24.3843487 11.4331622,25.8238378 L11.4331622,25.8238378 C12.1346944,28.7878229 13.3063093,31.6203549 14.9035135,34.2138649 L14.9035135,34.2138649 C15.1532432,34.5947027 15.4163514,34.9666216 15.6955135,35.3224865 L15.6955135,35.3224865 L15.4752162,35.4946216 C15.1907027,35.1298378 14.9231351,34.7516757 14.6725135,34.3654865 L14.6725135,34.3663784 Z" id="Path_553"></path>
                            <path d="M23.5218649,11.7132162 C21.7978074,11.626087 20.0699367,11.6496218 18.3488919,11.7836757 L18.3488919,11.7836757 L18.3212432,11.5062973 C18.3328378,11.5062973 27.2642432,10.6465135 33.1685676,13.4978919 L33.1685676,13.4978919 L33.0472703,13.7494054 C30.0317796,12.4672091 26.7980439,11.7762554 23.5218649,11.7141081 L23.5218649,11.7132162 Z" id="Path_554"></path>
                            <path d="M23.7894324,60.2294595 C22.3380507,57.8982267 21.5089254,55.2336637 21.3813243,52.4905135 L21.6587027,52.4905135 C21.6922059,53.3206312 21.7972438,54.1463125 21.9726486,54.9583784 L21.9726486,54.9583784 C22.3319281,56.7781967 23.0276172,58.5149997 24.024,60.0796216 L24.024,60.0796216 C24.2095135,60.3662162 24.4122703,60.6483514 24.6322703,60.926027 L24.6322703,60.926027 L24.4137568,61.0972703 C24.189,60.8145405 23.9811892,60.5255676 23.7894324,60.233027 L23.7894324,60.2294595 Z" id="Path_555"></path>
                            <path d="M53.0497297,16.7211892 C52.2972099,16.6700511 51.5412625,16.7107836 50.7985946,16.8424865 L50.7985946,16.8424865 L50.7379459,16.5749189 C53.4665975,16.1795672 56.2504784,16.6525961 58.6954054,17.927027 L58.6954054,17.927027 L58.5741081,18.1785405 C56.8487696,17.3285248 54.9700133,16.8344186 53.0497297,16.7256486 L53.0497297,16.7211892 Z" id="Path_556"></path>
                            <path d="M42.0357568,9.08213514 C41.3756153,6.82367668 40.3785599,4.67772232 39.0782432,2.7167027 L39.0782432,2.7167027 C38.8338649,2.34210811 38.568973,1.96394595 38.2898108,1.58489189 L38.2898108,1.58489189 L38.4012973,1.50105405 C38.6837297,1.88456757 38.9483243,2.26421622 39.1950811,2.64 L39.1950811,2.64 C40.5043967,4.61378912 41.5075337,6.77432238 42.1704324,9.04824324 L42.1704324,9.04824324 L42.0357568,9.08302703 L42.0357568,9.08213514 Z" id="Path_557"></path>
                            <path d="M3.71383784,43.9256757 L3.83691892,43.6777297 C5.31672199,44.1693189 6.85793598,44.4518048 8.41589189,44.517 L8.41589189,44.517 C10.1836216,44.6730811 11.7346216,44.7221351 11.7381892,44.7203514 L11.7381892,44.7203514 L11.7301622,44.9995135 C11.7167838,44.9941622 5.51724324,44.8157838 3.71383784,43.9292432 L3.71383784,43.9256757 Z" id="Path_558"></path>
                            <path d="M0.337135135,35.8594054 C-0.162324324,26.1779189 4.14105405,20.7739459 4.1472973,20.7659189 L4.1472973,20.7659189 L4.25610811,20.8551081 C3.394803,22.0522325 2.69740931,23.3591332 2.18245946,24.7410811 L2.18245946,24.7410811 C0.820554769,28.2803857 0.238280853,32.071859 0.475378378,35.8567297 L0.475378378,35.8567297 L0.337135135,35.862973 L0.337135135,35.8594054 Z" id="Path_559"></path>
                            <path d="M16.5891892,6.18616216 C20.5808103,3.28861401 25.1158172,1.22586842 29.922973,0.121297297 C29.922973,0.121297297 21.45,1.50640541 16.3858378,5.87667568 L16.5891892,6.18616216 Z" id="Path_560"></path>
                            <path d="M58.4189189,40.7648108 C59.9617315,39.4029918 61.0696974,37.6172808 61.6047568,35.6301892 C61.1235738,37.7454674 60.0971928,39.6979898 58.6276216,41.2937027 L58.4189189,40.7648108 Z" id="Path_561"></path>
                            <path d="M46.8573243,54.6257027 C45.0984002,56.8497341 43.018325,58.7996543 40.6854324,60.4114054 C40.6854324,60.4114054 45.1101081,57.7642703 47.2577838,54.945 L46.8573243,54.6257027 Z" id="Path_562"></path>
                        </g>
                        <g id="Group_603" fill="#1F1F1F">
                            <path d="M3.43645946,21.672973 C3.80481081,16.1851622 7.89056757,10.4048108 7.89056757,10.4048108 C10.4913344,8.11643848 13.5595854,6.4223719 16.8817297,5.44054054 L18.9910541,11.7141081 C14.7911351,15.1282703 10.4288919,22.1974054 10.4288919,22.1974054 L3.43645946,21.672973 Z" id="Path_563"></path>
                            <path d="M14.627027,34.2040541 C14.627027,34.2040541 25.0621622,36.2500541 27.7146486,36.0645405 C27.7146486,36.0645405 30.3403784,45.3286216 31.655027,48.0158919 C31.655027,48.0158919 26.5962162,52.6537297 21.4401892,53.5928919 C17.2937204,51.5440469 13.6928439,48.5401578 10.9337027,44.8282703 C10.9337027,44.8282703 12.3375405,37.4790811 14.627027,34.2040541 Z" id="Path_564"></path>
                            <path d="M44.3876757,49.6685676 C44.3876757,49.6685676 50.8155405,44.574973 52.6376757,39.0550541 C54.708467,39.788276 56.8682761,40.240336 59.0592973,40.3991351 C59.0592973,40.3991351 58.1674054,47.7536757 55.5006486,50.6817568 C52.8330333,53.1923391 49.5767009,54.9914957 46.0314324,55.9135946 C45.8182579,53.7579035 45.2634009,51.6498684 44.3876757,49.6685676 L44.3876757,49.6685676 Z" id="Path_565"></path>
                            <path d="M32.0037568,13.2891892 C32.0037568,13.2891892 35.2288378,21.606973 36.2277568,25.1674054 C36.2277568,25.1674054 44.7408649,26.1404595 48.8515946,26.9993514 C48.8515946,26.9993514 52.4191622,19.5645405 51.6164595,16.6480541 C49.1960299,12.9093816 45.7800317,9.9205762 41.753027,8.01810811 C37.9583923,8.49395061 34.4798798,10.3746577 32.0037568,13.2891892 L32.0037568,13.2891892 Z" id="Path_566"></path>
                            <path d="M32.6967568,13.4399189 C32.6967568,13.4399189 35.7595135,21.3411892 36.7102703,24.7232432 C36.7102703,24.7232432 44.7979459,25.6481351 48.7035405,26.4633243 C48.7035405,26.4633243 52.0927297,19.3995405 51.3310541,16.6311081 C49.0316436,13.0792122 45.7864837,10.2396201 41.9608378,8.43194595 C38.3550311,8.88349181 35.0495089,10.6703896 32.6967568,13.4399189 L32.6967568,13.4399189 Z" id="Path_567"></path>
                            <path d="M0.121297297,34.3975946 C0.508115975,39.3768801 2.21016432,44.1641603 5.05345946,48.2700811 L5.14264865,48.3985135 C4.64387369,46.943509 4.40242532,45.4127264 4.42913514,43.8748378 C4.42913514,43.8748378 1.04440541,38.6965135 0.121297297,34.3975946 Z" id="Path_568"></path>
                            <path d="M23.8902162,59.8709189 C22.4560773,60.1399523 20.994077,60.2298294 19.5377838,60.1384865 C25.5367036,62.5430408 32.1334498,63.0291267 38.420027,61.5298378 C34.914,61.9775676 28.5512432,62.3227297 23.8902162,59.8709189 Z" id="Path_569"></path>
                            <path d="M61.7590541,25.1959459 C61.0255125,21.4495005 59.6078088,17.8703204 57.576973,14.6377297 C57.9774465,15.6637868 58.1458793,16.7657574 58.0701892,17.8645946 C59.491705,20.207008 60.7251942,22.6584784 61.7590541,25.1959459 L61.7590541,25.1959459 Z" id="Path_570"></path>
                            <path d="M38.7660811,2.09951351 C40.9877838,1.62145946 44.385,3.00032432 46.818973,4.22221622 C41.3464056,1.05261662 35.042634,-0.386362105 28.7367568,0.0945405405 C32.1483058,0.357278335 35.515723,1.0304623 38.7660811,2.09951351 L38.7660811,2.09951351 Z" id="Path_571"></path>
                        </g>
                        <g id="Group_604" opacity="0.2" transform="translate(2.675676, 11.594595)" fill="#1F1F1F">
                            <path d="M26.3892973,23.6110541 L33.0784865,15.0881351 C33.6401794,14.4489814 34.4707789,14.1127076 35.3189189,14.1810811 L44.4911351,15.4297297 C45.2537027,15.5331892 45.2483514,15.5742162 44.4813243,15.5189189 L35.7577297,14.9177838 C34.8890487,14.9053636 34.0524113,15.2454889 33.4388108,15.8605135 L26.4570811,23.6717027 C25.9442432,24.2416216 25.9148108,24.2166486 26.3892973,23.6110541 Z" id="Path_572"></path>
                            <path d="M11.5491081,22.6246216 C11.5491081,22.6246216 7.57483784,15.4101081 7.65332432,10.7027027 L1.09256757,10.3379189 L7.10927027,11.1406216 C7.78091495,15.233978 9.29257198,19.1440013 11.5491081,22.6246216 Z" id="Path_573"></path>
                            <path d="M0.624311078,10.0025676 C0.624311078,10.0025676 0.589540541,5.67154054 4.08486486,0.332675676 C1.87790153,3.07575056 0.658892811,6.48206306 0.624311078,10.0025676 L0.624311078,10.0025676 Z" id="Path_574"></path>
                            <path d="M28.8081081,36.9243243 C28.8081081,36.9243243 36.0083514,39.2824865 41.6914865,38.5591622 C42.4754642,40.2829194 42.968515,42.124627 43.1506216,44.0095135 C42.754412,42.2686921 42.1756409,40.574531 41.4239189,38.9551622 C37.1153053,39.3348872 32.7798975,38.6369922 28.8081081,36.9243243 L28.8081081,36.9243243 Z" id="Path_575"></path>
                            <path d="M49.755973,27.4845405 C49.0958689,23.3988007 47.8205594,19.4366507 45.9734595,15.732973 C45.9734595,15.732973 48.7499189,23.0268649 49.2217297,26.5444865 C49.2689315,27.12497 49.1816432,27.70852 48.9666486,28.2497838 C47.1541967,31.823852 44.7027,35.0358869 41.7334054,37.727027 C45.2620121,35.0780062 48.0293163,31.5449633 49.755973,27.4845405 L49.755973,27.4845405 Z" id="Path_576"></path>
                            <path d="M46.4417027,15.1782162 C46.4417027,15.1782162 49.7015676,8.71913514 49.1512703,5.33618919 C49.1512703,5.33618919 50.2946757,9.24535135 46.4417027,15.1782162 Z" id="Path_577"></path>
                        </g>
                    </g>
                </g>
                <path d="M175.27157,56 C181.788751,50.1084435 190.189468,46.681111 199,46.3192531 C172.871279,35.0525639 84.4244405,3.35918262 11,53.2689475 C11.0035416,53.2689475 86.2899555,15.389864 175.27157,56 Z" id="Path_578" fill="#009D64"></path>
                <path d="M166.965594,68.4606688 C168.297218,65.5467776 169.988892,62.8160026 172,60.333907 C154.178452,52.9519788 78.6393303,26.0652841 0,63.1544031 C0,63.1544031 77.8684868,28.7260447 166.736113,69 C166.813198,68.8214194 166.88408,68.6392493 166.965594,68.4606688 Z" id="Path_579" fill="#FFFFFF"></path>
                <path d="M164.339868,77.1704251 C148.625495,69.1510006 81.2621846,38.4538486 15,63.9024397 C15,63.9024397 86.5580759,46.2236377 166,97 C163.669514,90.6603705 163.095924,83.8090774 164.339868,77.1704251 L164.339868,77.1704251 Z" id="Path_580" fill="#009D64"></path>
                <g id="Group_608" transform="translate(34.000000, 0.000000)" fill="#FFFFFF">
                    <path d="M13.7725744,14.1886739 C13.9154103,15.8723478 13.9899333,16.7083913 14.1460769,18.3778043 C12.3380051,19.0017174 11.4375179,19.319913 9.64097949,19.9821522 C10.0703744,23.7416739 10.2992667,25.592913 10.7818923,29.2454783 C9.09625128,29.7668913 8.26141538,30.0369565 6.58819487,30.5931304 C6.04878974,27.0626739 5.78973333,25.2693696 5.29468718,21.6310652 C3.50790769,22.3298478 2.61984103,22.6890435 0.846369231,23.4279348 C0.60505641,21.9189565 0.491497436,21.1604565 0.262605128,19.6336522 C5.61141026,17.2770435 8.31553333,16.1896522 13.7725744,14.1886739 Z" id="Path_581"></path>
                    <path d="M28.7942974,9.25530435 C28.9326974,15.4053043 29.0329487,18.4357391 29.2955538,24.3905435 C27.5886205,24.7568696 26.7351538,24.9493913 25.0370923,25.3531522 C24.8978051,23.132913 24.8277179,22.017 24.7088359,19.7682391 C22.8626154,20.2602391 21.9443846,20.5178261 20.1026,21.0508261 C20.2667282,23.2336304 20.3518974,24.3174565 20.5337692,26.4681739 C18.8410308,26.9066957 17.992,27.1375435 16.3001487,27.6108261 C15.7323538,22.1667391 15.475959,19.3938913 15.0164,13.7367826 C16.8022923,13.0941522 17.6956821,12.7821957 19.4948821,12.1752174 C19.6341692,14.4034783 19.7042564,15.5149348 19.8586256,17.7164565 C21.7217026,17.1406739 22.6559026,16.8634783 24.5287385,16.329587 C24.4151795,14.063 24.3637231,12.9203478 24.2705692,10.619 C26.0733179,10.0574783 26.9791282,9.78384783 28.7942974,9.25530435 Z" id="Path_582"></path>
                    <path d="M42.7815692,5.65354348 C42.7114821,7.6456087 42.6804308,8.63495652 42.6218769,10.6083043 C39.4023026,11.266087 37.7938462,11.6235 34.6,12.3962609 C34.6,12.9221304 34.6044359,13.1823913 34.6070974,13.7064783 C37.7902974,12.9586739 39.3872205,12.6083913 42.5872769,11.9755652 C42.5553385,13.5050435 42.5402564,14.2671087 42.5163026,15.7841087 C39.3694769,16.3545435 37.7982821,16.6665 34.6674256,17.3510217 C34.6736359,17.8697609 34.6771846,18.1291304 34.6842821,18.6469783 C37.7973949,17.987413 39.3588308,17.6879348 42.4852513,17.1406739 C42.4462154,19.0899565 42.4302462,20.060587 42.4036308,21.9929348 C37.6243949,22.714 35.2378821,23.1436087 30.4861487,24.1383043 C30.2519333,18.1407174 30.1676513,15.0915652 30.0611897,8.897 C35.1154513,7.45130435 37.6625436,6.80332609 42.7815692,5.65354348 Z" id="Path_583"></path>
                    <path d="M64.5706974,14.4266522 C64.3347077,16.5969783 64.2202615,17.6790217 63.9984667,19.8333043 C59.1961641,20.0686087 56.7945692,20.254 52.0029128,20.7584783 C52.3577846,13.9845652 52.5742564,10.5476957 53.0888205,3.58482609 C54.9412513,3.25504348 55.8701282,3.09995652 57.7296564,2.8085 C57.2763077,7.78465217 57.0713692,10.2508913 56.6952051,15.1370217 C59.8420308,14.7956522 61.4212103,14.6557174 64.5706974,14.4266522 Z" id="Path_584"></path>
                    <path d="M80.9107692,4.08217391 C80.9017673,4.34184178 80.8753881,4.60060714 80.8318103,4.85671739 C80.1140821,8.99682609 79.7671949,11.0557391 79.1026974,15.1486087 C78.9305618,16.3269038 78.4065028,17.4249609 77.5998154,18.297587 C76.9628648,19.0790353 76.0211602,19.5462288 75.0163487,19.5792826 C72.4231231,19.5730435 71.1260667,19.589087 68.5399385,19.6612826 C67.750523,19.6953723 66.991673,19.3518723 66.4941026,18.7352174 C65.9234745,18.0456738 65.6125482,17.1763963 65.6157949,16.2796739 C65.6092914,16.039608 65.6178846,15.799369 65.6415231,15.5603913 C66.0682564,11.6885652 66.2927128,9.73928261 66.7646923,5.81754348 C66.9012677,4.64013206 67.4045896,3.53616042 68.2028103,2.66321739 C68.8876216,1.81551956 69.8701647,1.26421754 70.9477436,1.12304348 C73.7609897,0.845847826 75.1689436,0.729086957 77.9901744,0.537456522 C78.8182507,0.451852518 79.6323425,0.797903188 80.1477949,1.4546087 C80.7187377,2.20455203 80.990787,3.14144734 80.9107692,4.08217391 Z M76.0312821,6.34697826 C74.0892462,6.44769565 73.1177846,6.51008696 71.1810718,6.65091304 C70.7756308,9.64123913 70.5724667,11.1315 70.1954154,14.0941957 C72.0718,14.0050652 73.0113231,13.9747609 74.8877077,13.928413 C75.333959,10.9122391 75.5637385,9.39345652 76.0357179,6.34697826 L76.0312821,6.34697826 Z" id="Path_585"></path>
                    <path d="M96.3805179,3.98769565 C96.3521736,4.26223226 96.3077375,4.53485049 96.247441,4.80413043 C94.7951282,11.0744565 94.0986923,14.1833261 92.7634872,20.3591739 C91.0459077,20.2112174 90.1906667,20.1470435 88.4668769,20.0338478 C89.5749641,14.4801304 90.1525179,11.6823261 91.3510974,6.05463043 C89.4108359,6.027 88.4393744,6.02076087 86.5008872,6.03413043 C85.4158667,11.5744783 84.8977538,14.3232609 83.9085487,19.7860652 C82.1856462,19.7103043 81.3241949,19.68 79.5995179,19.6416739 C80.6552615,13.1648623 81.7822752,6.70171739 82.980559,0.25223913 C87.2665231,0.0543695652 89.4126103,-2.16840434e-19 93.7074462,-2.16840434e-19 C94.5556765,-0.0231194965 95.3520177,0.409162162 95.797641,1.13463043 C96.3192282,1.98744358 96.525565,2.99742076 96.3805179,3.98769565 Z" id="Path_586"></path>
                    <path d="M113.057718,0.79326087 C112.292082,3.36556522 111.911482,4.64815217 111.16359,7.21065217 C107.406385,6.8273913 105.526451,6.67586957 101.759487,6.44680435 C100.922877,9.77047826 100.517436,11.427413 99.7092154,14.727913 C101.580277,14.8928043 102.51359,14.9863913 104.379328,15.1913913 C104.562087,14.4935 104.655241,14.145 104.839774,13.4471087 C104.049297,13.3642174 103.653615,13.325 102.861364,13.2492391 C103.354636,11.304413 103.603933,10.3302174 104.108738,8.37736957 C106.739226,8.58415217 108.053138,8.70804348 110.678303,8.99058696 C109.744103,12.2581087 109.282769,13.8865217 108.379621,17.1344348 C108.051933,18.4094065 107.37804,19.5678174 106.433149,20.4803913 C105.73919,21.2565455 104.72414,21.6624089 103.689103,21.577587 C101.121605,21.2210652 99.8405179,21.0659783 97.2694718,20.7914565 C96.454534,20.7015643 95.7419624,20.1992008 95.3806667,19.4598478 C94.9104437,18.568715 94.730759,17.551691 94.8669897,16.552413 C94.8935448,16.2782741 94.9362038,16.0059515 94.9947436,15.7368696 C95.970641,11.4024565 96.4718974,9.23034783 97.5028,4.84958696 C97.786685,3.56861129 98.4392077,2.39976792 99.3791846,1.48847826 C100.13242,0.650471261 101.19991,0.166752619 102.323733,0.154195652 C106.619456,0.311956522 108.768205,0.445652174 113.057718,0.79326087 Z" id="Path_587"></path>
                    <path d="M136.592815,8.651 C136.511622,8.96194765 136.414193,9.26838608 136.300933,9.56904348 C135.777497,10.9291739 135.517554,11.6065652 135.001215,12.9666957 C134.565591,13.929247 133.890302,14.7627021 133.040549,15.386587 C133.257834,16.1921078 133.285475,17.0373886 133.121282,17.8555 C133.090231,17.9829565 133.060954,18.1157609 133.026354,18.2441087 C132.508241,19.5926522 132.250072,20.2664783 131.736395,21.6105652 C131.272223,22.9503679 130.465028,24.1437342 129.396015,25.0706087 C128.652862,25.8391792 127.57901,26.1880012 126.528651,26.0020217 C122.526585,25.001087 120.512687,24.5483043 116.468923,23.7372174 C118.780913,16.441 121.136374,9.16052899 123.535308,1.89580435 C128.022662,2.46802174 130.263677,2.81295652 134.729738,3.60265217 C135.614606,3.758036 136.333533,4.4072827 136.581282,5.27473913 C136.930591,6.3721953 136.934619,7.55116098 136.592815,8.651 Z M128.666754,17.2529783 C126.60761,16.8073261 125.572272,16.5978696 123.508692,16.2012391 C123.259395,16.9365652 123.13519,17.3037826 122.887667,18.0391087 C124.937051,18.4437609 125.960856,18.6630217 128.001369,19.1086739 C128.267523,18.3608696 128.4006,17.990087 128.666754,17.2458478 L128.666754,17.2529783 Z M131.204974,10.1608696 C129.075744,9.74997826 128.011128,9.55745652 125.875687,9.19736957 C125.621067,9.93626087 125.4942,10.3043696 125.239579,11.0414783 C127.358164,11.4104783 128.414795,11.6083478 130.526282,12.021913 C130.796872,11.2758913 130.93261,10.9024348 131.204087,10.156413 L131.204974,10.1608696 Z" id="Path_588"></path>
                    <path d="M143.468456,31.0236304 C141.828062,30.4612174 141.003872,30.1902609 139.352831,29.6643913 C139.672215,28.3826957 139.829246,27.7427391 140.151292,26.4619348 C138.571226,25.9806304 137.778974,25.7488913 136.19181,25.2943261 C135.525538,26.4530217 135.195508,27.0323696 134.538995,28.1875 C132.874646,27.6990652 132.03981,27.4628696 130.369251,27.0065217 C134.408284,19.6615797 138.583942,12.3923986 142.896226,5.19897826 C145.688179,5.79704348 147.082826,6.11613043 149.861472,6.80332609 C147.762997,14.8844855 145.631991,22.9579203 143.468456,31.0236304 Z M141.655949,20.4723696 C142.386985,17.4535217 142.751615,15.9445435 143.470231,12.9328261 C141.809431,15.7110217 140.992338,17.0925435 139.389205,19.8484565 C140.291467,20.0926739 140.745703,20.2174565 141.655949,20.4723696 Z" id="Path_589"></path>
                    <path d="M158.798031,28.3826957 C157.397174,31.2250652 156.705174,32.6431304 155.328272,35.4783696 C150.853338,33.6431739 148.593692,32.791087 144.038913,31.2188261 C147.406646,23.4347681 150.844762,15.6804203 154.353262,7.95578261 C156.196821,8.44778261 157.116826,8.70358696 158.953287,9.23391304 C155.835738,15.8295652 154.302692,19.117587 151.304913,25.6695652 C154.321323,26.6972391 155.820656,27.2364783 158.798031,28.3826957 Z" id="Path_590"></path>
                    <path d="M171.463405,33.6975435 C169.866482,36.5916087 169.068021,38.0355217 167.494164,40.9233478 C163.122144,38.8002609 160.908631,37.8037826 156.444344,35.945413 C160.347933,27.9830942 164.323385,20.0567246 168.370697,12.1663043 C170.19119,12.7750652 171.098774,13.090587 172.910395,13.7376739 C169.327077,20.4625652 167.565138,23.8147609 164.11401,30.5013261 C167.076303,31.725087 168.54281,32.3641522 171.463405,33.6975435 Z" id="Path_591"></path>
                </g>
            </g>
        </g>
    </g>
</svg>